<mxfile host="65bd71144e" scale="3" border="0">
    <diagram id="0WsB0r4QxBH1Fb_YK2Zd" name="Page-1">
        <mxGraphModel dx="1667" dy="2097" grid="1" gridSize="10" guides="1" tooltips="1" connect="1" arrows="1" fold="1" page="1" pageScale="1" pageWidth="1600" pageHeight="900" background="#ffffff" math="0" shadow="0">
            <root>
                <mxCell id="0"/>
                <mxCell id="1" parent="0"/>
                <mxCell id="2" value="" style="endArrow=classic;html=1;strokeColor=#000000;strokeWidth=5;" edge="1" parent="1">
                    <mxGeometry width="50" height="50" relative="1" as="geometry">
                        <mxPoint x="240" y="640" as="sourcePoint"/>
                        <mxPoint x="1450" y="640" as="targetPoint"/>
                    </mxGeometry>
                </mxCell>
                <mxCell id="3" value="" style="endArrow=classic;html=1;strokeColor=#000000;strokeWidth=5;" edge="1" parent="1">
                    <mxGeometry width="50" height="50" relative="1" as="geometry">
                        <mxPoint x="242" y="642" as="sourcePoint"/>
                        <mxPoint x="242" y="80" as="targetPoint"/>
                    </mxGeometry>
                </mxCell>
                <mxCell id="4" value="Trend" style="text;html=1;strokeColor=none;fillColor=none;align=center;verticalAlign=middle;whiteSpace=wrap;rounded=0;fontColor=#000000;fontSize=52;" vertex="1" parent="1">
                    <mxGeometry x="1270" y="681" width="170" height="30" as="geometry"/>
                </mxCell>
                <mxCell id="5" value="" style="curved=1;endArrow=classic;html=1;strokeColor=#99004D;strokeWidth=7;fontSize=52;fontColor=#000000;" edge="1" parent="1">
                    <mxGeometry width="50" height="50" relative="1" as="geometry">
                        <mxPoint x="327" y="194" as="sourcePoint"/>
                        <mxPoint x="1347" y="554" as="targetPoint"/>
                        <Array as="points">
                            <mxPoint x="750" y="254"/>
                            <mxPoint x="760" y="520"/>
                            <mxPoint x="1057" y="554"/>
                        </Array>
                    </mxGeometry>
                </mxCell>
                <mxCell id="6" value="Number of Firms" style="text;html=1;strokeColor=none;fillColor=none;align=center;verticalAlign=middle;whiteSpace=wrap;rounded=0;fontSize=52;fontColor=#000000;horizontal=0;" vertex="1" parent="1">
                    <mxGeometry x="119" y="130" width="120" height="460" as="geometry"/>
                </mxCell>
                <mxCell id="7" value="" style="endArrow=none;html=1;strokeColor=#4D4D4D;strokeWidth=7;fontSize=52;fontColor=#000000;dashed=1;" edge="1" parent="1">
                    <mxGeometry width="50" height="50" relative="1" as="geometry">
                        <mxPoint x="634" y="634" as="sourcePoint"/>
                        <mxPoint x="634" y="60" as="targetPoint"/>
                    </mxGeometry>
                </mxCell>
                <mxCell id="8" value="" style="endArrow=none;html=1;strokeColor=#4D4D4D;strokeWidth=7;fontSize=52;fontColor=#000000;dashed=1;" edge="1" parent="1">
                    <mxGeometry width="50" height="50" relative="1" as="geometry">
                        <mxPoint x="880" y="640" as="sourcePoint"/>
                        <mxPoint x="880" y="60" as="targetPoint"/>
                    </mxGeometry>
                </mxCell>
                <mxCell id="12" value="Bloom Stage" style="text;html=1;strokeColor=none;fillColor=none;align=center;verticalAlign=middle;whiteSpace=wrap;rounded=0;fontSize=52;fontColor=#000000;" vertex="1" parent="1">
                    <mxGeometry x="239" y="580" width="380" height="30" as="geometry"/>
                </mxCell>
                <mxCell id="14" value="" style="ellipse;whiteSpace=wrap;html=1;aspect=fixed;fontSize=52;fontColor=#ffffff;fillColor=#60a917;strokeColor=#2D7600;" vertex="1" parent="1">
                    <mxGeometry x="330" y="226" width="40" height="40" as="geometry"/>
                </mxCell>
                <mxCell id="15" value="" style="ellipse;whiteSpace=wrap;html=1;aspect=fixed;fontSize=52;fontColor=#ffffff;fillColor=#1ba1e2;strokeColor=#006EAF;" vertex="1" parent="1">
                    <mxGeometry x="270" y="70" width="40" height="40" as="geometry"/>
                </mxCell>
                <mxCell id="17" value="" style="ellipse;whiteSpace=wrap;html=1;aspect=fixed;fontSize=52;fontColor=#ffffff;fillColor=#d80073;strokeColor=#A50040;" vertex="1" parent="1">
                    <mxGeometry x="270" y="160" width="40" height="40" as="geometry"/>
                </mxCell>
                <mxCell id="18" value="" style="ellipse;whiteSpace=wrap;html=1;aspect=fixed;fontSize=52;fontColor=#ffffff;fillColor=#6a00ff;strokeColor=#3700CC;" vertex="1" parent="1">
                    <mxGeometry x="330" y="306" width="40" height="40" as="geometry"/>
                </mxCell>
                <mxCell id="20" value="" style="ellipse;whiteSpace=wrap;html=1;aspect=fixed;fontSize=52;fontColor=#000000;fillColor=#fa6800;strokeColor=#C73500;" vertex="1" parent="1">
                    <mxGeometry x="330" y="120" width="40" height="40" as="geometry"/>
                </mxCell>
                <mxCell id="22" value="" style="ellipse;whiteSpace=wrap;html=1;aspect=fixed;fontSize=52;fontColor=#ffffff;fillColor=#76608a;strokeColor=#432D57;" vertex="1" parent="1">
                    <mxGeometry x="270" y="266" width="40" height="40" as="geometry"/>
                </mxCell>
                <mxCell id="25" value="" style="ellipse;whiteSpace=wrap;html=1;aspect=fixed;fontSize=52;fillColor=#fad9d5;strokeColor=#ae4132;" vertex="1" parent="1">
                    <mxGeometry x="400" y="260" width="40" height="40" as="geometry"/>
                </mxCell>
                <mxCell id="26" value="" style="ellipse;whiteSpace=wrap;html=1;aspect=fixed;fontSize=52;fillColor=#00CCCC;strokeColor=#ae4132;" vertex="1" parent="1">
                    <mxGeometry x="400" y="150" width="40" height="40" as="geometry"/>
                </mxCell>
                <mxCell id="27" value="" style="ellipse;whiteSpace=wrap;html=1;aspect=fixed;fontSize=52;fillColor=#CCCC00;strokeColor=#ae4132;" vertex="1" parent="1">
                    <mxGeometry x="490" y="160" width="40" height="40" as="geometry"/>
                </mxCell>
                <mxCell id="28" value="" style="ellipse;whiteSpace=wrap;html=1;aspect=fixed;fontSize=52;fontColor=#ffffff;fillColor=#60a917;strokeColor=#2D7600;" vertex="1" parent="1">
                    <mxGeometry x="460" y="110" width="40" height="40" as="geometry"/>
                </mxCell>
                <mxCell id="29" value="" style="ellipse;whiteSpace=wrap;html=1;aspect=fixed;fontSize=52;fontColor=#ffffff;fillColor=#6a00ff;strokeColor=#3700CC;" vertex="1" parent="1">
                    <mxGeometry x="450" y="306" width="40" height="40" as="geometry"/>
                </mxCell>
                <mxCell id="30" value="" style="ellipse;whiteSpace=wrap;html=1;aspect=fixed;fontSize=52;fontColor=#ffffff;fillColor=#76608a;strokeColor=#432D57;" vertex="1" parent="1">
                    <mxGeometry x="390" y="360" width="40" height="40" as="geometry"/>
                </mxCell>
                <mxCell id="31" value="" style="ellipse;whiteSpace=wrap;html=1;aspect=fixed;fontSize=52;fillColor=#fad9d5;strokeColor=#ae4132;" vertex="1" parent="1">
                    <mxGeometry x="400" y="60" width="40" height="40" as="geometry"/>
                </mxCell>
                <mxCell id="33" value="" style="ellipse;whiteSpace=wrap;html=1;aspect=fixed;fontSize=52;fontColor=#ffffff;fillColor=#1ba1e2;strokeColor=#006EAF;" vertex="1" parent="1">
                    <mxGeometry x="270" y="346" width="40" height="40" as="geometry"/>
                </mxCell>
                <mxCell id="34" value="" style="ellipse;whiteSpace=wrap;html=1;aspect=fixed;fontSize=52;fillColor=#00CCCC;strokeColor=#ae4132;" vertex="1" parent="1">
                    <mxGeometry x="470" y="250" width="40" height="40" as="geometry"/>
                </mxCell>
                <mxCell id="35" value="" style="ellipse;whiteSpace=wrap;html=1;aspect=fixed;fontSize=52;fillColor=#00994D;strokeColor=#ae4132;" vertex="1" parent="1">
                    <mxGeometry x="530" y="280" width="40" height="40" as="geometry"/>
                </mxCell>
                <mxCell id="36" value="" style="ellipse;whiteSpace=wrap;html=1;aspect=fixed;fontSize=52;fillColor=#FF66FF;strokeColor=#ae4132;" vertex="1" parent="1">
                    <mxGeometry x="570" y="179" width="40" height="40" as="geometry"/>
                </mxCell>
                <mxCell id="38" value="1-3 years" style="text;html=1;strokeColor=none;fillColor=none;align=center;verticalAlign=middle;whiteSpace=wrap;rounded=0;fontSize=37;fontColor=#000000;" vertex="1" parent="1">
                    <mxGeometry x="305" y="660" width="230" height="30" as="geometry"/>
                </mxCell>
                <mxCell id="39" value="Survival and Merge Stage&amp;nbsp;" style="text;html=1;strokeColor=none;fillColor=none;align=left;verticalAlign=middle;whiteSpace=wrap;rounded=0;fontSize=37;fontColor=#000000;fontStyle=2" vertex="1" parent="1">
                    <mxGeometry x="649" y="576" width="290" height="30" as="geometry"/>
                </mxCell>
                <mxCell id="40" value="" style="ellipse;whiteSpace=wrap;html=1;aspect=fixed;fontSize=52;fontColor=#000000;fillColor=#fa6800;strokeColor=#C73500;" vertex="1" parent="1">
                    <mxGeometry x="720" y="255" width="40" height="40" as="geometry"/>
                </mxCell>
                <mxCell id="41" value="" style="ellipse;whiteSpace=wrap;html=1;aspect=fixed;fontSize=52;fontColor=#ffffff;fillColor=#1ba1e2;strokeColor=#006EAF;" vertex="1" parent="1">
                    <mxGeometry x="762" y="321" width="40" height="40" as="geometry"/>
                </mxCell>
                <mxCell id="42" value="" style="ellipse;whiteSpace=wrap;html=1;aspect=fixed;fontSize=52;fontColor=#ffffff;fillColor=#60a917;strokeColor=#2D7600;" vertex="1" parent="1">
                    <mxGeometry x="670" y="210" width="40" height="40" as="geometry"/>
                </mxCell>
                <mxCell id="43" value="" style="ellipse;whiteSpace=wrap;html=1;aspect=fixed;fontSize=52;fontColor=#ffffff;fillColor=#F1C86A;strokeColor=#3700CC;" vertex="1" parent="1">
                    <mxGeometry x="690" y="374" width="40" height="40" as="geometry"/>
                </mxCell>
                <mxCell id="44" value="" style="ellipse;whiteSpace=wrap;html=1;aspect=fixed;fontSize=52;fontColor=#ffffff;fillColor=#FF00FF;strokeColor=#006EAF;" vertex="1" parent="1">
                    <mxGeometry x="790" y="400" width="40" height="40" as="geometry"/>
                </mxCell>
                <mxCell id="45" value="" style="ellipse;whiteSpace=wrap;html=1;aspect=fixed;fontSize=52;fontColor=#ffffff;fillColor=#6a00ff;strokeColor=#3700CC;" vertex="1" parent="1">
                    <mxGeometry x="720" y="460" width="40" height="40" as="geometry"/>
                </mxCell>
                <mxCell id="47" value="" style="ellipse;whiteSpace=wrap;html=1;aspect=fixed;fontSize=52;fontColor=#000000;fillColor=#fa6800;strokeColor=#C73500;" vertex="1" parent="1">
                    <mxGeometry x="939" y="480" width="40" height="40" as="geometry"/>
                </mxCell>
                <mxCell id="48" value="" style="ellipse;whiteSpace=wrap;html=1;aspect=fixed;fontSize=52;fontColor=#ffffff;fillColor=#FF00FF;strokeColor=#006EAF;" vertex="1" parent="1">
                    <mxGeometry x="1020" y="490" width="40" height="40" as="geometry"/>
                </mxCell>
                <mxCell id="49" value="" style="ellipse;whiteSpace=wrap;html=1;aspect=fixed;fontSize=52;fontColor=#ffffff;fillColor=#1ba1e2;strokeColor=#006EAF;" vertex="1" parent="1">
                    <mxGeometry x="1100" y="490" width="40" height="40" as="geometry"/>
                </mxCell>
                <mxCell id="50" value="The Winners' Stage" style="text;html=1;strokeColor=none;fillColor=none;align=left;verticalAlign=middle;whiteSpace=wrap;rounded=0;fontSize=57;fontColor=#000000;fontStyle=2" vertex="1" parent="1">
                    <mxGeometry x="910" y="90" width="560" height="30" as="geometry"/>
                </mxCell>
                <mxCell id="51" value="2-3 years" style="text;html=1;strokeColor=none;fillColor=none;align=center;verticalAlign=middle;whiteSpace=wrap;rounded=0;fontSize=37;fontColor=#000000;" vertex="1" parent="1">
                    <mxGeometry x="634" y="660" width="230" height="30" as="geometry"/>
                </mxCell>
                <mxCell id="52" value="&amp;gt; 10 years" style="text;html=1;strokeColor=none;fillColor=none;align=center;verticalAlign=middle;whiteSpace=wrap;rounded=0;fontSize=37;fontColor=#000000;" vertex="1" parent="1">
                    <mxGeometry x="935" y="660" width="230" height="30" as="geometry"/>
                </mxCell>
                <mxCell id="53" value="How firms evolve in the AI Race" style="text;html=1;strokeColor=none;fillColor=none;align=left;verticalAlign=middle;whiteSpace=wrap;rounded=0;fontSize=57;fontColor=#000000;fontStyle=0;fontFamily=Georgia;" vertex="1" parent="1">
                    <mxGeometry x="400" y="759" width="860" height="30" as="geometry"/>
                </mxCell>
                <mxCell id="54" value="" style="ellipse;whiteSpace=wrap;html=1;aspect=fixed;fontSize=52;fillColor=none;strokeColor=none;" vertex="1" parent="1">
                    <mxGeometry x="410" y="12" width="40" height="40" as="geometry"/>
                </mxCell>
            </root>
        </mxGraphModel>
    </diagram>
</mxfile>